<svg width="100" height="100" viewBox="0 0 100 100" fill="none" xmlns="http://www.w3.org/2000/svg">
<path d="M74.7707 59.4874C73.2751 54.0658 70.0421 49.2846 65.5676 45.8773C61.0931 42.47 55.6243 40.6248 50.0002 40.6248C44.3761 40.6248 38.9073 42.47 34.4328 45.8773C29.9583 49.2846 26.7253 54.0658 25.2297 59.4874L21.6657 72.4074C21.0257 74.7271 20.9303 77.1633 21.3867 79.526C21.8431 81.8887 22.8391 84.1141 24.2969 86.0286C25.7548 87.9431 27.6352 89.495 29.7914 90.5633C31.9477 91.6316 34.3216 92.1874 36.728 92.1874H63.2725C65.6789 92.1874 68.0527 91.6316 70.209 90.5633C72.3653 89.495 74.2456 87.9431 75.7035 86.0286C77.1614 84.1141 78.1573 81.8887 78.6138 79.526C79.0702 77.1633 78.9747 74.7271 78.3348 72.4074L74.7707 59.4874ZM70.7313 82.2413C69.8604 83.3943 68.7329 84.3285 67.4383 84.97C66.1436 85.6116 64.7174 85.9428 63.2725 85.9374H36.728C35.2841 85.9374 33.8598 85.604 32.566 84.963C31.2722 84.322 30.1439 83.3908 29.2692 82.2421C28.3945 81.0934 27.7969 79.7582 27.523 78.3405C27.2492 76.9229 27.3065 75.4611 27.6905 74.0693L31.2545 61.1495C32.3864 57.0466 34.833 53.4283 38.2192 50.8498C41.6054 48.2712 45.744 46.8749 50.0002 46.8749C54.2564 46.8749 58.395 48.2712 61.7812 50.8498C65.1674 53.4283 67.6141 57.0466 68.7459 61.1495L72.31 74.0693C72.6995 75.4606 72.7596 76.9235 72.4856 78.3421C72.2116 79.7607 71.6109 81.096 70.7313 82.2421V82.2413ZM28.5354 44.9823C29.0791 41.5839 28.358 37.9458 26.5041 34.7357C24.6502 31.5255 21.8596 29.082 18.6453 27.8536C15.2032 26.539 11.6922 26.7484 8.75589 28.4429C2.91858 31.8132 1.38245 40.1196 5.33225 46.9595C7.18557 50.1697 9.97639 52.6138 13.1907 53.8415C14.6145 54.3964 16.128 54.6858 17.6561 54.6952C19.5599 54.7021 21.4315 54.2042 23.0801 53.2521C26.0147 51.5573 27.9522 48.6204 28.5354 44.9823ZM22.3635 43.9945C22.0842 45.7384 21.2287 47.1038 19.9547 47.8394C18.6807 48.5749 17.0705 48.6327 15.4201 48.0029C13.5426 47.2859 11.8821 45.8054 10.7442 43.8345C8.55667 40.0454 9.07659 35.4751 11.8809 33.8556C12.5858 33.4555 13.3842 33.2495 14.1948 33.2583C14.9551 33.2662 15.7075 33.4129 16.4151 33.6913C18.2926 34.4087 19.9532 35.889 21.091 37.8599C22.2289 39.8308 22.6807 42.0099 22.3635 43.9945ZM29.2123 32.0345C31.4315 33.8085 33.9657 34.7323 36.5283 34.7321C37.296 34.7319 38.0613 34.6493 38.8114 34.4859C45.3979 33.054 49.3914 25.6103 47.7137 17.8925C46.9266 14.2702 45.0129 11.0923 42.3254 8.94367C39.4475 6.64289 36.0385 5.772 32.7264 6.49231C26.1401 7.92395 22.1465 15.3677 23.8241 23.0855C24.6114 26.7079 26.525 29.8859 29.2123 32.0345ZM34.0537 12.5997C34.3574 12.5342 34.6673 12.5015 34.978 12.5021C36.1397 12.5021 37.3346 12.9566 38.4227 13.8265C39.9924 15.0814 41.1231 16.9972 41.6063 19.2212C42.536 23.4976 40.6481 27.6915 37.4838 28.3794C36.0461 28.6919 34.4946 28.2568 33.1153 27.1538C31.5455 25.8988 30.4149 23.9829 29.9317 21.7591C29.0018 17.4816 30.8897 13.2876 34.0537 12.5997ZM91.2446 28.4429C88.3094 26.7484 84.7967 26.539 81.3551 27.8536C78.1408 29.0816 75.35 31.5255 73.4967 34.7357C71.6434 37.9458 70.9221 41.5847 71.4655 44.9823C72.0479 48.6204 73.985 51.5573 76.9207 53.2521C78.5693 54.2042 80.4409 54.7022 82.3448 54.6952C83.8729 54.6858 85.3863 54.3964 86.8102 53.8415C90.0244 52.6138 92.8153 50.1697 94.6686 46.9595C98.618 40.1196 97.0819 31.8132 91.2446 28.4429ZM89.2563 43.8345C88.1184 45.8054 86.4578 47.2859 84.5803 48.0029C82.9307 48.6333 81.3201 48.5753 80.0461 47.8394C78.7721 47.1034 77.9172 45.7384 77.6373 43.9945C77.3198 42.0099 77.7713 39.8316 78.9094 37.8616C80.0475 35.8917 81.7078 34.4105 83.5854 33.6931C84.2929 33.4144 85.0453 33.2674 85.8057 33.2593C86.6162 33.2504 87.4146 33.4565 88.1196 33.8566C90.9239 35.4747 91.4444 40.0445 89.2563 43.8345ZM61.1891 34.4859C61.9391 34.6493 62.7045 34.7319 63.4721 34.7321C66.0346 34.7321 68.5698 33.8085 70.7881 32.0345C73.4754 29.8861 75.3891 26.7079 76.1764 23.0857C77.8539 15.3679 73.8604 7.92414 67.274 6.4925C63.9621 5.77258 60.553 6.64289 57.675 8.94387C54.9875 11.0923 53.0739 14.2704 52.2867 17.8925C50.609 25.6103 54.6026 33.054 61.1891 34.4859ZM58.3942 19.2202C58.8774 16.9962 60.008 15.0796 61.5778 13.8255C62.666 12.9556 63.8608 12.5011 65.0225 12.5011C65.3332 12.5005 65.643 12.5333 65.9467 12.5988C69.1108 13.2866 70.9987 17.4816 70.0692 21.757C69.5856 23.981 68.4549 25.8976 66.8856 27.1519C65.5065 28.2546 63.9559 28.6898 62.517 28.3775C59.3524 27.6905 57.4645 23.496 58.3942 19.2202Z" fill="black" fill-opacity="0.1"/>
</svg>
